{"title":"Gnomeo and Juliet 2011 DVDrip Dutch Klam","uid":6483050,"size":1412351533,"categoryP":"video","categoryS":"movies","magnet":"?xt=urn:btih:9c958f16d95a5ac05669221374abb5ebe9e07300&amp;dn=Gnomeo+and+Juliet+2011+DVDrip+Dutch+Klam&amp;tr=udp%3A%2F%2Ftracker.openbittorrent.com%3A80&amp;tr=udp%3A%2F%2Fopen.demonii.com%3A1337&amp;tr=udp%3A%2F%2Ftracker.coppersurfer.tk%3A6969&amp;tr=udp%3A%2F%2Fexodus.desync.com%3A6969","seeders":1,"leechers":1,"uploader":"Klambake","files":-1,"time":1308601728,"description":"Nederlands gesproken,\n\nHet wereldberoemde verhaal van 'Romeo and Juliet' van William Shakespeare's toneelstuk. Dit keer verteld aan de hand van binnen- en buiten-kabouters. Wanneer de mensen (bewoners) van hun huizen weg zijn, is het voor twee rivaliserende kaboutergroepen elke keer weer een kans om tegen elkaar te strijden. Twee geliefden, genaamd Gnomeo en Juliet durven de liefde voor elkaar niet uit te dragen uit angst voor wat er met de eeuwig rivaliserende kaboutergroepen gebeurt.\n\n------------------ Dutch Friends ------------------\n\nVrienden van mij vind je hier: http://www.Film-Test.nl \n                    \n------ They got my dutchs subs ---- and more ------\n\nGeneral:\n\nComplete name                    : Gnomeo and Juliet\\Gnomeo and Juliet.avi\nFormat                           : AVI\nFormat/Info                      : Audio Video Interleave\nFile size                        : 1.31 GiB\nDuration                         : 1h 20mn\nOverall bit rate                 : 2 340 Kbps\n\nVideo:\n\nFormat                           : MPEG-4 Visual\nFormat profile                   : Simple@L3\nFormat settings, BVOP            : No\nFormat settings, QPel            : No\nFormat settings, GMC             : No warppoints\nFormat settings, Matrix          : Default (H.263)\nCodec ID                         : XVID\nCodec ID/Hint                    : XviD\nDuration                         : 1h 20mn\nBit rate                         : 1 945 Kbps\nWidth                            : 652 pixels\nHeight                           : 352 pixels\nDisplay aspect ratio             : 1.852\nFrame rate                       : 25.000 fps\nColor space                      : YUV\nChroma subsampling               : 4:2:0\nBit depth                        : 8 bits\nScan type                        : Progressive\nBits/(Pixel*Frame)               : 0.339\nStream size                      : 1.09 GiB (83%)\nWriting library                  : XviD 1.1.2 (UTC 2006-11-01)\n\nAudio:\n\nFormat                           : AC-3\nFormat/Info                      : Audio Coding 3\nMode extension                   : CM (complete main)\nCodec ID                         : 2000\nDuration                         : 1h 20mn\nBit rate mode                    : Constant\nBit rate                         : 384 Kbps\nChannel(s)                       : 6 channels\nChannel positions                : Front: L C R, Side: L R, LFE\nSampling rate                    : 48.0 KHz\nBit depth                        : 16 bits\nStream size                      : 221 MiB (16%)\nAlignment                        : Aligned on interleaves\nInterleave, duration             : 32 ms (0.80 video frame)\nInterleave, preload duration     : 1056 ms\n\n","torrent":{"xt":"urn:btih:9c958f16d95a5ac05669221374abb5ebe9e07300","amp;dn":"Gnomeo+and+Juliet+2011+DVDrip+Dutch+Klam","amp;tr":["udp%3A%2F%2Ftracker.openbittorrent.com%3A80","udp%3A%2F%2Fopen.demonii.com%3A1337","udp%3A%2F%2Ftracker.coppersurfer.tk%3A6969","udp%3A%2F%2Fexodus.desync.com%3A6969"],"infoHash":"9c958f16d95a5ac05669221374abb5ebe9e07300","infoHashBuffer":{"type":"Buffer","data":[156,149,143,22,217,90,90,192,86,105,34,19,116,171,181,235,233,224,115,0]},"announce":[],"urlList":[]}}